{
    "asset" : {
        "generator" : "Khronos glTF Blender I/O v1.6.16",
        "version" : "2.0"
    },
    "scene" : 0,
    "scenes" : [
        {
            "name" : "Scene",
            "nodes" : [
                5
            ]
        }
    ],
    "nodes" : [
        {
            "mesh" : 0,
            "name" : "Sphere001__0",
            "translation" : [
                0.034471359103918076,
                0.0717390701174736,
                0.04365869238972664
            ]
        },
        {
            "children" : [
                0
            ],
            "name" : "Sphere001",
            "rotation" : [
                -0.7071068286895752,
                0,
                0,
                0.7071067094802856
            ],
            "scale" : [
                0.8999999761581421,
                0.9000000953674316,
                1
            ]
        },
        {
            "children" : [
                1
            ],
            "name" : "RootNode"
        },
        {
            "children" : [
                2
            ],
            "name" : "f33e3e7ef018484195d2e1013b2922ec_fbx",
            "rotation" : [
                0.7071068286895752,
                0,
                0,
                0.7071067094802856
            ]
        },
        {
            "children" : [
                3
            ],
            "name" : "RootNode_(model_correction_matrix)"
        },
        {
            "children" : [
                4
            ],
            "name" : "RootNode_(gltf_orientation_matrix)",
            "rotation" : [
                -0.7071068286895752,
                0,
                0,
                0.7071067094802856
            ]
        }
    ],
    "meshes" : [
        {
            "name" : "Sphere001__0",
            "primitives" : [
                {
                    "attributes" : {
                        "POSITION" : 0,
                        "NORMAL" : 1
                    },
                    "indices" : 2
                }
            ]
        }
    ],
    "accessors" : [
        {
            "bufferView" : 0,
            "componentType" : 5126,
            "count" : 1843,
            "max" : [
                8.877336502075195,
                8.877294540405273,
                17.490564346313477
            ],
            "min" : [
                -12.150956153869629,
                -8.87729549407959,
                -7.1517333984375
            ],
            "type" : "VEC3"
        },
        {
            "bufferView" : 1,
            "componentType" : 5126,
            "count" : 1843,
            "type" : "VEC3"
        },
        {
            "bufferView" : 2,
            "componentType" : 5123,
            "count" : 10368,
            "type" : "SCALAR"
        }
    ],
    "bufferViews" : [
        {
            "buffer" : 0,
            "byteLength" : 22116,
            "byteOffset" : 0
        },
        {
            "buffer" : 0,
            "byteLength" : 22116,
            "byteOffset" : 22116
        },
        {
            "buffer" : 0,
            "byteLength" : 20736,
            "byteOffset" : 44232
        }
    ],
    "buffers" : [
        {
            "byteLength" : 64968,
            "uri" : "data:application/octet-stream;base64,"
        }
    ]
}
